PathFileType	4	(X/Y/Z)	/Users/itak/Documents/Research/Walk-IL/dataset/trc/00473_00167.trc
DataRate	CameraRate	NumFrames	NumMarkers	Units	OrigDataRate	OrigDataStartFrame	OrigNumFrames
100.000000	100.000000	4	53	mm	100.000000	215	575
Frame#	Time	RPSI			LPSI			L3			STRN			T10			C7			CLAV			RBAK			LBAK			LSHO			LUPA			LAEL			LAOL			LWTS			LWPS			LFRA			LIFD			LHPS			LHTS			RSHO			RUPA			RAEL			RAOL			RWTS			RWPS			RFRA			RIFD			RHTS			RHPS			RBHD			LFHD			RFHD			LBHD			LHIP			RHIP			RASI			LASI			LKNE			LTHI			LANK			LTIP			LTOE			LMT1			LMT5			LHEE			RKNE			RTHI			RANK			RTIP			RTOE			RMT1			RMT5			RHEE			
		X1	Y1	Z1	X2	Y2	Z2	X3	Y3	Z3	X4	Y4	Z4	X5	Y5	Z5	X6	Y6	Z6	X7	Y7	Z7	X8	Y8	Z8	X9	Y9	Z9	X10	Y10	Z10	X11	Y11	Z11	X12	Y12	Z12	X13	Y13	Z13	X14	Y14	Z14	X15	Y15	Z15	X16	Y16	Z16	X17	Y17	Z17	X18	Y18	Z18	X19	Y19	Z19	X20	Y20	Z20	X21	Y21	Z21	X22	Y22	Z22	X23	Y23	Z23	X24	Y24	Z24	X25	Y25	Z25	X26	Y26	Z26	X27	Y27	Z27	X28	Y28	Z28	X29	Y29	Z29	X30	Y30	Z30	X31	Y31	Z31	X32	Y32	Z32	X33	Y33	Z33	X34	Y34	Z34	X35	Y35	Z35	X36	Y36	Z36	X37	Y37	Z37	X38	Y38	Z38	X39	Y39	Z39	X40	Y40	Z40	X41	Y41	Z41	X42	Y42	Z42	X43	Y43	Z43	X44	Y44	Z44	X45	Y45	Z45	X46	Y46	Z46	X47	Y47	Z47	X48	Y48	Z48	X49	Y49	Z49	X50	Y50	Z50	X51	Y51	Z51	X52	Y52	Z52	X53	Y53	Z53	

216	2.15	-630.63818359375	919.3719482421875	-426.0304260253906	-610.8297729492188	921.7402954101562	-568.275390625	-599.343017578125	1026.011840820312	-473.0665283203125	-303.3187255859375	1204.548461914062	-462.358642578125	-602.7091674804688	1151.735961914062	-470.4465637207031	-513.4202880859375	1411.98828125	-447.1703491210938	-331.5679321289062	1320.109008789062	-464.1392517089844	-583.19189453125	1295.300170898438	-356.6137390136719	-548.2799682617188	1371.991455078125	-547.5697631835938	-443.1291198730469	1389.263549804688	-625.20556640625	-465.0137939453125	1280.0087890625	-729.3338012695312	-470.6819763183594	1072.582275390625	-787.0963745117188	-542.5046997070312	1058.035034179688	-712.9252319335938	-430.9380187988281	851.081298828125	-785.7119750976562	-483.6732482910156	859.5182495117188	-837.5772094726562	-467.8229370117188	986.104736328125	-811.8995971679688	-476.3939208984375	701.9320068359375	-824.1761474609375	-501.009521484375	785.1943359375	-849.7443237304688	-443.1161499023438	766.898193359375	-810.0672607421875	-443.8447875976562	1374.887573242188	-289.7074279785156	-463.6546630859375	1315.58154296875	-214.4560699462891	-481.9540100097656	1031.673217773438	-152.6522064208984	-538.2645874023438	1019.4033203125	-189.3954315185547	-402.1898498535156	816.2974243164062	-204.7026214599609	-464.0695190429688	809.736572265625	-140.6833343505859	-482.1344909667969	972.8409423828125	-142.6138763427734	-425.3633728027344	659.72705078125	-193.7115325927734	-402.0241088867188	716.0779418945312	-193.4790344238281	-460.6591186523438	723.2242431640625	-142.4994659423828	-461.1889038085938	1604.033569335938	-380.21484375	-294.8204650878906	1623.486450195312	-500.6958923339844	-326.3655700683594	1631.082885742188	-374.2197265625	-434.8086853027344	1596.66455078125	-555.5510864257812	-441.8539123535156	829.8977661132812	-663.0211791992188	-537.69580078125	811.304443359375	-273.2023315429688	-422.2321472167969	852.449462890625	-318.4969177246094	-373.3289184570312	871.5425415039062	-565.5078735351562	-273.2882385253906	439.9197998046875	-596.7960205078125	-305.6595458984375	591.4678344726562	-633.1539916992188	-403.8360290527344	41.56472015380859	-596.1878051757812	-295.654541015625	282.5333557128906	-604.3839111328125	-186.0356750488281	39.26433181762695	-490.1566772460938	-265.0796813964844	44.94668579101562	-476.4740905761719	-250.5824890136719	45.97182464599609	-588.896728515625	-457.8388366699219	46.50033187866211	-540.0902709960938	-516.8491821289062	435.9313659667969	-249.1061401367188	-493.6358947753906	682.9024047851562	-250.6432647705078	-905.8516235351562	240.8637390136719	-283.6482238769531	-627.3973999023438	342.361328125	-246.4156951904297	-821.9044799804688	51.25111389160156	-319.2811584472656	-837.5929565429688	107.3056564331055	-362.240966796875	-876.3153686523438	112.5378112792969	-262.539794921875	-923.9151611328125	301.3718872070312	-329.2834777832031	
217	2.16	-618.7634887695312	922.2986450195312	-424.8494262695312	-600.43310546875	925.05517578125	-567.3563232421875	-588.1887817382812	1029.421020507812	-473.2248229980469	-293.0139770507812	1208.366577148438	-462.6029357910156	-591.6192626953125	1155.209716796875	-471.0053405761719	-502.90673828125	1415.724731445312	-447.6999816894531	-321.27587890625	1323.893432617188	-464.0942077636719	-572.89990234375	1298.817504882812	-357.5023803710938	-537.5354614257812	1375.887084960938	-548.3399658203125	-431.9841003417969	1393.346435546875	-625.4118041992188	-452.112060546875	1284.301513671875	-730.0574951171875	-454.824462890625	1076.728759765625	-788.3179931640625	-527.825927734375	1061.176025390625	-715.5762939453125	-411.0459289550781	856.2593383789062	-786.220947265625	-463.2637023925781	863.4627685546875	-838.7391967773438	-450.16064453125	990.2423095703125	-813.0343627929688	-451.6967163085938	706.2494506835938	-825.8242797851562	-478.3162231445312	788.8668212890625	-851.394287109375	-420.4954833984375	772.0684204101562	-811.0747680664062	-434.0194396972656	1378.539306640625	-289.97021484375	-454.172607421875	1319.258666992188	-214.8365325927734	-472.6142272949219	1035.439575195312	-152.9512786865234	-528.8005981445312	1023.383056640625	-189.8130340576172	-393.7686157226562	819.3600463867188	-204.3596496582031	-455.5804748535156	813.427001953125	-140.5226440429688	-472.9871215820312	976.6241455078125	-142.8260498046875	-417.8189086914062	663.096435546875	-193.5356903076172	-394.0282287597656	719.3604125976562	-193.2434234619141	-452.6548461914062	726.8434448242188	-142.2861022949219	-450.0490417480469	1607.8779296875	-379.7653198242188	-283.4641723632812	1627	-500.0678405761719	-315.0897521972656	1634.3271484375	-373.6162719726562	-423.5687561035156	1600.926025390625	-555.1397094726562	-433.089599609375	832.214111328125	-663.8819580078125	-522.32568359375	814.5057983398438	-273.1456909179688	-408.6852722167969	856.700439453125	-320.0784606933594	-362.7712097167969	874.2805786132812	-567.7732543945312	-270.9506530761719	439.1394348144531	-597.9403076171875	-300.7637023925781	591.2488403320312	-634.363525390625	-403.9164428710938	41.56555938720703	-596.107666015625	-294.4114990234375	281.9399719238281	-604.9889526367188	-186.0655670166016	39.28704452514648	-490.2536010742188	-265.0721740722656	44.9368896484375	-476.5352172851562	-250.7161865234375	45.96389389038086	-588.9782104492188	-457.7971496582031	46.59306716918945	-539.976806640625	-489.8578796386719	439.3005981445312	-248.9715881347656	-475.0740966796875	686.6482543945312	-250.7269134521484	-876.6243286132812	241.0401306152344	-284.6403198242188	-599.399169921875	345.2620849609375	-246.973876953125	-784.9612426757812	54.2872314453125	-317.8658447265625	-803.130126953125	109.3418273925781	-361.625	-841.49755859375	114.8630905151367	-261.8159484863281	-896.8922119140625	300.6127014160156	-330.6622009277344	
218	2.17	-606.8898315429688	925.3455810546875	-423.6150207519531	-590.101318359375	928.3953857421875	-566.3853149414062	-577.1329345703125	1032.84814453125	-473.2783508300781	-282.8595886230469	1212.205078125	-462.7798156738281	-580.7373657226562	1158.696899414062	-471.442626953125	-492.5696411132812	1419.440551757812	-448.1321716308594	-311.1470336914062	1327.698974609375	-463.9459533691406	-562.7762451171875	1302.330932617188	-358.3181762695312	-526.96240234375	1379.759765625	-549.009521484375	-421.0217590332031	1397.429565429688	-625.5060424804688	-439.3324279785156	1288.628540039062	-730.6759033203125	-438.8857727050781	1080.948852539062	-789.431884765625	-513.1581420898438	1064.336303710938	-718.2604370117188	-390.8653564453125	861.711181640625	-786.439208984375	-442.5180358886719	867.5578002929688	-839.6835327148438	-432.3346862792969	994.4921264648438	-814.0068969726562	-426.2449035644531	710.9082641601562	-827.2050170898438	-455.0886535644531	792.74267578125	-852.8375244140625	-397.4106140136719	777.5706787109375	-811.7937622070312	-424.4290771484375	1382.165649414062	-290.1424865722656	-444.9681091308594	1322.953002929688	-215.1278381347656	-463.7391052246094	1039.199951171875	-153.1392822265625	-519.7451171875	1027.309814453125	-190.1775665283203	-385.3660278320312	822.6862182617188	-203.8337249755859	-447.3023376464844	817.1126098632812	-140.380615234375	-464.2642211914062	980.3905029296875	-142.955078125	-409.5791931152344	666.6802978515625	-193.2484588623047	-385.5965881347656	722.9506225585938	-192.7898406982422	-444.5064086914062	730.4663696289062	-142.1351928710938	-439.0809936523438	1611.652221679688	-379.1665649414062	-272.2684020996094	1630.493530273438	-499.2523803710938	-303.9980163574219	1637.509765625	-372.8279418945312	-412.4649658203125	1605.18310546875	-554.5682983398438	-424.5204162597656	834.476318359375	-664.6749267578125	-506.9979248046875	818.0077514648438	-272.9716186523438	-395.2861938476562	861.1054077148438	-321.7539367675781	-352.2947082519531	876.978759765625	-570.084716796875	-269.0134887695312	438.43212890625	-598.9778442382812	-296.260986328125	590.9953002929688	-635.463623046875	-404.0047302246094	41.56941604614258	-596.010009765625	-293.4587707519531	281.4378051757812	-605.543212890625	-186.1019439697266	39.305908203125	-490.3295288085938	-265.0659790039062	44.91981506347656	-476.5678100585938	-250.8471069335938	45.98247528076172	-589.014404296875	-457.7504272460938	46.68087768554688	-539.8477172851562	-462.9959411621094	443.1246948242188	-249.1798706054688	-456.6463317871094	690.7164306640625	-250.7687377929688	-846.6280517578125	239.7590026855469	-285.5815124511719	-571.1505737304688	348.1198120117188	-247.7534790039062	-746.67236328125	56.6951789855957	-316.7636413574219	-767.3919067382812	110.5619201660156	-361.1957397460938	-805.5299072265625	116.0460739135742	-261.3374938964844	-869.3250732421875	298.2977294921875	-331.8888854980469	
219	2.18	-595.04150390625	928.454833984375	-422.3418273925781	-579.8189086914062	931.7199096679688	-565.3609008789062	-566.1358642578125	1036.26416015625	-473.2483215332031	-272.8168640136719	1216.020141601562	-462.8975524902344	-570.0399780273438	1162.155883789062	-471.7983703613281	-482.3906860351562	1423.095336914062	-448.474365234375	-301.1535949707031	1331.48583984375	-463.7074890136719	-552.7938842773438	1305.802368164062	-359.0690002441406	-516.5359497070312	1383.568359375	-549.5885620117188	-410.2311096191406	1401.476196289062	-625.49609375	-426.6949157714844	1292.954956054688	-731.1884155273438	-422.9052429199219	1085.214965820312	-790.4359741210938	-498.484375	1067.491943359375	-720.9486694335938	-370.4524536132812	867.403564453125	-786.3589477539062	-421.4668884277344	871.793701171875	-840.3934326171875	-414.3714904785156	998.8342895507812	-814.8104248046875	-400.1815490722656	715.9071044921875	-828.2606811523438	-431.3901672363281	796.8372802734375	-854.0458984375	-373.9505615234375	783.381591796875	-812.1821899414062	-415.0343933105469	1385.737182617188	-290.243896484375	-435.9894409179688	1326.6376953125	-215.347412109375	-455.2742309570312	1042.937866210938	-153.2413940429688	-511.0457458496094	1031.167358398438	-190.5171966552734	-376.9869689941406	826.2374877929688	-203.1354675292969	-439.2525634765625	820.7661743164062	-140.2520294189453	-455.9249877929688	984.1256713867188	-143.0167236328125	-400.7221374511719	670.4161376953125	-192.8231201171875	-376.8297729492188	726.7613525390625	-192.1139984130859	-436.2677612304688	734.0623779296875	-142.0287017822266	-428.2794189453125	1615.304931640625	-378.433349609375	-261.226806640625	1633.927490234375	-498.2677307128906	-293.0862731933594	1640.593872070312	-371.8731384277344	-401.4817810058594	1609.379272460938	-553.8513793945312	-416.1036376953125	836.6727294921875	-665.3922729492188	-491.7686767578125	821.7255249023438	-272.7133483886719	-382.0640869140625	865.5913696289062	-323.5041809082031	-341.8748779296875	879.6109619140625	-572.4290771484375	-267.41552734375	437.7937316894531	-599.9026489257812	-292.1249694824219	590.7024536132812	-636.4599609375	-404.0935668945312	41.57279586791992	-595.8994750976562	-292.7074584960938	281.0227355957031	-606.02490234375	-186.14599609375	39.32384490966797	-490.3876342773438	-265.062744140625	44.89796829223633	-476.573486328125	-250.9750213623047	46.02698135375977	-589.0066528320312	-457.7102966308594	46.76581192016602	-539.706298828125	-436.312255859375	447.3197631835938	-249.7360534667969	-438.3586120605469	695.0506591796875	-250.7979431152344	-815.9078979492188	237.0453643798828	-286.4808959960938	-542.7106323242188	350.8480224609375	-248.7470092773438	-707.2777709960938	58.41367721557617	-315.92431640625	-730.5573120117188	110.9636764526367	-360.9277038574219	-768.598388671875	116.1581573486328	-261.0729675292969	-841.204833984375	294.4172058105469	-332.9754943847656	
